# xmcd CD database file
#
# Track frame offsets:
#	150
#	15185
#	29466
#	45461
#	60067
#	78774
#	92896
#	116838
#	127806
#	145492
#	162563
#	182708
#	200733
#	212614
#	231936
#
# Disc length: 3304 seconds
#
# Revision: 2
# Processed by: cddbd v1.5.2PL0 Copyright (c) Steve Scherf et al.
# Submitted via: CDex 1.51
#
DISCID=c30ce60f
DTITLE=Frank Sinatra - Duets II
DYEAR=1994
DGENRE=Jazz
TTITLE0=For Once In My Life (With Gladys Knight And Stevie Wonder)
TTITLE1=Come Fly With Me (With Luis Miguel)
TTITLE2=Bewitched (With Patti LaBelle)
TTITLE3=The Best Is Yet To Come (With Jon Secada)
TTITLE4=Moonlight In Vermont (With Linda Ronstadt)
TTITLE5=Fly Me To The Moon (With Antonio Carlos Jobim)
TTITLE6=Luck Be A Lady (With Chrissie Hynde)
TTITLE7=A Foggy Day (With Willie Nelson)
TTITLE8=Where Or When (With Steve Lawrence And Eydie Gorme)
TTITLE9=Embraceable You (With Lena Horne)
TTITLE10=Mack The Knife (With Jimmy Buffett)
TTITLE11=How Do You Keep The Music Playing?_My Funny Valentine (With Lorrie Morgan)
TTITLE12=My Kind Of Town (With Frank Sinatra Jr.)
TTITLE13=The House I Live In (That's America To Me) (With Neil Diamond)
TTITLE14=My Way (With Luciano Pavarotti)
EXTD=YEAR: 1994
EXTT0=
EXTT1=
EXTT2=
EXTT3=
EXTT4=
EXTT5=
EXTT6=
EXTT7=
EXTT8=
EXTT9=
EXTT10=
EXTT11=
EXTT12=
EXTT13=
EXTT14=
PLAYORDER=
